<?xml version="1.0" encoding="utf-8"?><!DOCTYPE svg PUBLIC "-//W3C//DTD SVG 1.1//EN" "http://www.w3.org/Graphics/SVG/1.1/DTD/svg11.dtd"><svg version="1.1" xmlns="http://www.w3.org/2000/svg" xmlns:xlink="http://www.w3.org/1999/xlink" x="0px" y="0px" width="396.85px" height="68.03px" viewBox="0 0 396.85 68.03" enable-background="new 0 0 396.85 68.03" xml:space="preserve" role="img" aria-label="Pandora Toolbox"><title>Pandora Toolbox</title><g><path fill="#55A85C" d="M75.909,19.374h7.79c2.653,0,9.459,0,9.459,8.774c0,5.693-3.638,8.86-8.817,8.86h-4.665v12.926h-3.767 V19.374z M79.676,33.926h4.494c2.739,0,5.05-1.883,5.05-5.949c0-3.338-1.583-5.521-5.307-5.521h-4.237V33.926z"/><path fill="#55A85C" d="M100.903,19.374h5.05l8.218,30.56h-3.938l-2.183-8.389h-9.759l-2.269,8.389h-3.938L100.903,19.374z M99.063,38.463h8.218l-3.895-14.766H103.3L99.063,38.463z"/><path fill="#55A85C" d="M116.308,19.374h4.879l10.101,25.509h0.085V19.374h3.767v30.56h-5.179l-9.801-24.739h-0.085v24.739h-3.767 V19.374z"/><path fill="#55A85C" d="M140.488,19.374h8.175c9.502,0,10.7,6.848,10.7,15.28c0,7.704-1.926,15.28-10.315,15.28h-8.56V19.374z M144.254,46.852h3.938c6.506,0,7.233-6.677,7.233-12.155c0-5.906-0.385-12.241-7.233-12.241h-3.938V46.852z"/><path fill="#55A85C" d="M183.157,34.653c0,7.704-1.412,15.88-9.844,15.88c-8.432,0-9.844-8.176-9.844-15.88 c0-7.704,1.413-15.879,9.844-15.879C181.745,18.774,183.157,26.95,183.157,34.653z M167.407,34.653 c0,7.063,0.685,12.798,5.906,12.798c5.222,0,5.907-5.735,5.907-12.798c0-7.062-0.685-12.797-5.907-12.797 C168.091,21.856,167.407,27.591,167.407,34.653z"/><path fill="#55A85C" d="M187.691,19.374h9.887c4.794,0,7.833,2.825,7.833,7.662c0,3.338-1.155,6.848-4.708,7.704v0.086 c2.653,0.299,4.151,2.482,4.322,5.093l0.257,5.222c0.172,3.382,0.728,4.237,1.627,4.794h-4.537 c-0.642-0.642-0.941-2.91-1.027-4.408l-0.257-4.751c-0.3-4.194-2.61-4.451-4.537-4.451h-5.093v13.61h-3.767V19.374z M191.458,33.241h3.724c2.226,0,6.292,0,6.292-5.906c0-2.996-2.012-4.879-5.521-4.879h-4.494V33.241z"/><path fill="#55A85C" d="M215.895,19.374h5.051l8.218,30.56h-3.938l-2.184-8.389h-9.759l-2.268,8.389h-3.938L215.895,19.374z M214.054,38.463h8.218l-3.895-14.766h-0.086L214.054,38.463z"/><path fill="#3B823E" d="M249.275,49.934h-3.767V22.712h-7.661v-3.339h19.132v3.339h-7.704V49.934z"/><path fill="#3B823E" d="M279.063,34.653c0,7.704-1.413,15.88-9.845,15.88s-9.844-8.176-9.844-15.88 c0-7.704,1.412-15.879,9.844-15.879S279.063,26.95,279.063,34.653z M263.312,34.653c0,7.063,0.685,12.798,5.906,12.798 s5.906-5.735,5.906-12.798c0-7.062-0.685-12.797-5.906-12.797S263.312,27.591,263.312,34.653z"/><path fill="#3B823E" d="M302.857,34.653c0,7.704-1.413,15.88-9.845,15.88s-9.844-8.176-9.844-15.88 c0-7.704,1.412-15.879,9.844-15.879S302.857,26.95,302.857,34.653z M287.106,34.653c0,7.063,0.685,12.798,5.906,12.798 s5.906-5.735,5.906-12.798c0-7.062-0.685-12.797-5.906-12.797S287.106,27.591,287.106,34.653z"/><path fill="#3B823E" d="M307.391,19.374h3.767v27.221h12.412v3.339h-16.179V19.374z"/><path fill="#3B823E" d="M326.392,19.374h9.373c3.98,0,7.833,1.883,7.833,7.833c0,2.782-1.669,5.564-4.451,6.377v0.085 c3.767,0.899,5.436,3.767,5.436,7.533c0,6.206-3.51,8.731-9.887,8.731h-8.304V19.374z M330.158,32.557h4.323 c1.583,0,5.179-0.386,5.179-5.094c0-3.167-1.584-5.007-5.265-5.007h-4.237V32.557z M330.158,46.852h5.136 c3.98,0,5.351-2.696,5.351-5.649c0-4.194-2.696-5.821-5.992-5.821h-4.494V46.852z"/><path fill="#3B823E" d="M367.863,34.653c0,7.704-1.413,15.88-9.845,15.88s-9.844-8.176-9.844-15.88 c0-7.704,1.412-15.879,9.844-15.879S367.863,26.95,367.863,34.653z M352.112,34.653c0,7.063,0.685,12.798,5.906,12.798 s5.906-5.735,5.906-12.798c0-7.062-0.685-12.797-5.906-12.797S352.112,27.591,352.112,34.653z"/><path fill="#3B823E" d="M369.572,19.374h4.194l5.564,11.428l5.607-11.428h3.938l-7.619,15.023l8.133,15.537h-4.194l-6.078-12.241 l-6.206,12.241h-3.938l8.132-15.537L369.572,19.374z"/></g><g><path fill="#56BB61" d="M33.432,35.229l-0.49,0.287L7.108,20.35c0,0,0,27.876,0,29.334s22.834,15.167,25.834,15.167 c0.125,0,0.298-0.032,0.49-0.078V35.229z"/><path fill="#55A85C" d="M58.776,49.684c0-1.542,0-29.334,0-29.334L32.942,35.517v29.334C35.942,64.851,58.776,51.226,58.776,49.684 z"/><path fill="#B8DDB5" d="M7.108,20.35c0-1.708,22.959-15.167,25.834-15.167S58.776,18.558,58.776,20.35S36.192,35.517,32.942,35.517 S7.108,22.058,7.108,20.35z"/><linearGradient id="SVGID_1_" gradientUnits="userSpaceOnUse" x1="7.6704" y1="44.335" x2="30.4204" y2="44.335"><stop offset="0" style="stop-color:#FFFFFF;stop-opacity:0.4"/><stop offset="0.8" style="stop-color:#EFF6E9"/></linearGradient><path fill="url(#SVGID_1_)" d="M30.417,43.996l-0.125,0.074l-7.661,4.674l-4.935-2.727V39.85l7.678-4.387 c-1.427-0.801-3.068-1.262-4.82-1.262c-5.447,0-9.863,4.414-9.868,9.861L7.67,45.717c0,1.977,0,3.34,0,3.633 c0,0.523,2.957,2.633,6.878,5.119l2.146-1.314c1.186,0.504,2.489,0.783,3.858,0.783c5.449,0,9.867-4.418,9.867-9.867 C30.42,44.045,30.417,44.021,30.417,43.996z"/></g></svg>